# File created by Blade
# Date/Time:  Tue Jan 27 18:35:03 2015
# Frame Rate: 120.000 fps
#------------------------------------------------------
:FULLY-SPECIFIED
:DEGREES
1945
root -3.753737 31.947210 -2.811889 -1.733676 9.706741 -10.471973
Spine 8.543850 -14.956177 -2.725261
Head 22.791546 -5.417785 14.683708
LeftShoulder -14.625991 13.549933 15.637892
LeftArm 28.107117 -25.637938 -78.727437
LeftForeArm 127.459861 -0.000000 136.475449
LeftHand 7.468439 -0.000000 -4.919520
LeftHandThumb1 -26.253704 0.000000 33.147579
RightShoulder -16.607778 -9.802928 -8.040204
RightArm 0.984233 -37.670511 87.094710
RightForeArm -23.118628 -0.000000 29.665649
RightHand -13.423841 -0.000000 12.629809
RightHandThumb1 -24.326973 -0.000000 -32.862282
LeftUpLeg -9.568565 2.410113 3.104377
LeftLeg 24.222584 -0.000000 -0.000000
LeftFoot -26.510079 19.120466 -17.853395
LeftToeBase 9.035883 -0.000000 -0.000000
RightUpLeg -49.002628 -4.388086 11.877617
RightLeg 72.765582 -0.000000 -0.000000
RightFoot -3.518781 -16.463073 16.336593
RightToeBase 1.367103 -0.000000 -0.000000
1946
root -3.742948 31.952158 -2.775862 -1.647625 9.896338 -10.357806
Spine 8.396817 -15.003386 -2.792537
Head 22.767377 -5.544667 14.657302
LeftShoulder -14.627338 13.595812 15.586801
LeftArm 28.066637 -25.630333 -78.741399
LeftForeArm 127.426881 0.000000 136.473068
LeftHand 7.416068 -0.000000 -4.823222
LeftHandThumb1 -26.253704 0.000000 33.147579
RightShoulder -16.598541 -9.824920 -8.073662
RightArm 0.868773 -37.575427 87.240412
RightForeArm -23.231318 -0.000000 29.553482
RightHand -13.495593 -0.000000 12.655689
RightHandThumb1 -24.326973 -0.000000 -32.862282
LeftUpLeg -9.462984 2.374352 2.983033
LeftLeg 23.945757 -0.000000 -0.000000
LeftFoot -26.410396 19.010681 -17.770192
LeftToeBase 9.072113 -0.000000 -0.000000
RightUpLeg -47.518369 -4.248188 11.353870
RightLeg 71.684685 -0.000000 -0.000000
RightFoot -3.949422 -16.177114 16.398808
RightToeBase 0.739281 -0.000000 -0.000000
1947
root -3.735457 31.956311 -2.740043 -1.487564 10.173061 -10.203863
Spine 8.173987 -15.143981 -2.907002
Head 22.740894 -5.618157 14.655104
LeftShoulder -14.655823 13.636420 15.543755
LeftArm 28.093680 -25.687755 -78.793570
LeftForeArm 127.364229 -0.000000 136.462855
LeftHand 7.667273 -0.000000 -4.520461
LeftHandThumb1 -26.253704 0.000000 33.147579
RightShoulder -16.600551 -9.829695 -8.085984
RightArm 0.723206 -37.582114 87.375305
RightForeArm -23.164282 -0.000000 29.453045
RightHand -13.529822 -0.000000 12.631587
RightHandThumb1 -24.326973 -0.000000 -32.862282
LeftUpLeg -9.447436 2.256768 2.827065
LeftLeg 23.675467 -0.000000 -0.000000
LeftFoot -26.286960 18.900213 -17.732823
LeftToeBase 9.260984 -0.000000 -0.000000
RightUpLeg -46.130498 -4.168495 10.817378
RightLeg 70.574612 -0.000000 -0.000000
RightFoot -4.495517 -15.913169 16.726515
RightToeBase 0.594458 -0.000000 -0.000000
1948
root -3.712073 31.958037 -2.703942 -1.351497 10.384476 -9.991931
Spine 7.985726 -15.217443 -3.024256
Head 22.680243 -5.666463 14.564283
LeftShoulder -14.688332 13.660215 15.415460
LeftArm 28.100084 -25.725840 -78.751394
LeftForeArm 127.286982 -0.000000 136.460084
LeftHand 7.804517 -0.000000 -4.301537
LeftHandThumb1 -26.253704 0.000000 33.147579
RightShoulder -16.611107 -9.908057 -8.125626
RightArm 0.726035 -37.529392 87.437634
RightForeArm -23.175144 -0.000000 29.318566
RightHand -13.476751 -0.000000 12.740720
RightHandThumb1 -24.326973 -0.000000 -32.862282
LeftUpLeg -9.365197 2.093253 2.570398
LeftLeg 23.393690 -0.000000 -0.000000
LeftFoot -26.177167 18.994297 -17.659792
LeftToeBase 8.817040 -0.000000 -0.000000
RightUpLeg -44.689106 -4.020947 10.207120
RightLeg 69.425875 -0.000000 -0.000000
RightFoot -5.104944 -15.600473 16.917813
RightToeBase 0.566435 -0.000000 -0.000000
1949
root -3.696854 31.960628 -2.673373 -1.179353 10.587947 -9.817064
Spine 7.769898 -15.259423 -3.120647
Head 22.577803 -5.739129 14.516625
LeftShoulder -14.720061 13.679031 15.359224
LeftArm 28.073654 -25.664891 -78.743307
LeftForeArm 127.183443 -0.000000 136.454208
LeftHand 7.806196 -0.000000 -4.194827
LeftHandThumb1 -26.253704 0.000000 33.147579
RightShoulder -16.617428 -9.895332 -8.155940
RightArm 0.617363 -37.533408 87.538827
RightForeArm -23.108648 0.000000 29.206805
RightHand -13.508558 -0.000000 12.733424
RightHandThumb1 -24.326973 -0.000000 -32.862282
LeftUpLeg -9.355505 1.912648 2.380707
LeftLeg 23.161776 -0.000000 -0.000000
LeftFoot -26.088230 18.934240 -17.737783
LeftToeBase 8.445884 -0.000000 -0.000000
RightUpLeg -43.298942 -3.756286 9.619088
RightLeg 68.196465 -0.000000 -0.000000
RightFoot -5.601988 -15.180285 16.992488
RightToeBase 0.368393 -0.000000 -0.000000
1950
root -3.684630 31.965076 -2.640010 -1.018259 10.788127 -9.690375
Spine 7.549510 -15.282983 -3.168165
Head 22.452514 -5.783411 14.504307
LeftShoulder -14.773986 13.776539 15.334750
LeftArm 27.944121 -25.401162 -78.743021
LeftForeArm 127.169702 0.000000 136.431266
LeftHand 7.233222 -0.000000 -4.291629
LeftHandThumb1 -26.253704 0.000000 33.147579
RightShoulder -16.619177 -9.884750 -8.175559
RightArm 0.518987 -37.451531 87.641157
RightForeArm -23.068513 -0.000000 29.088366
RightHand -13.583254 -0.000000 12.695127
RightHandThumb1 -24.326973 -0.000000 -32.862282
LeftUpLeg -9.343413 1.758635 2.241661
LeftLeg 22.937706 -0.000000 -0.000000
LeftFoot -26.031409 19.002959 -17.567667
LeftToeBase 8.723253 -0.000000 -0.000000
RightUpLeg -41.883306 -3.443842 9.085712
RightLeg 66.898691 -0.000000 -0.000000
RightFoot -6.073676 -14.692619 17.000695
RightToeBase 0.233525 -0.000000 -0.000000
1951
root -3.674344 31.966972 -2.602222 -0.837524 10.934723 -9.509695
Spine 7.293334 -15.276464 -3.278953
Head 22.345582 -5.764574 14.496204
LeftShoulder -14.826272 13.836771 15.290214
LeftArm 27.898833 -25.315721 -78.721686
LeftForeArm 127.062390 -0.000000 136.418200
LeftHand 7.155393 -0.000000 -4.258304
LeftHandThumb1 -26.253704 0.000000 33.147579
RightShoulder -16.596065 -9.933238 -8.192635
RightArm 0.469935 -37.445518 87.717773
RightForeArm -23.053565 -0.000000 28.970443
RightHand -13.601567 0.000000 12.710944
RightHandThumb1 -24.326973 -0.000000 -32.862282
LeftUpLeg -9.321947 1.668431 2.054035
LeftLeg 22.703500 -0.000000 -0.000000
LeftFoot -26.004472 18.946944 -17.633058
LeftToeBase 8.875686 -0.000000 -0.000000
RightUpLeg -40.488749 -2.991692 8.512594
RightLeg 65.555887 -0.000000 -0.000000
RightFoot -6.509619 -14.332877 16.966726
RightToeBase 0.143762 -0.000000 -0.000000
1952
root -3.665501 31.970057 -2.570920 -0.651230 11.125990 -9.373595
Spine 7.044493 -15.286550 -3.335474
Head 22.197877 -5.809203 14.481027
LeftShoulder -14.825774 13.843811 15.249093
LeftArm 27.854611 -25.278884 -78.685035
LeftForeArm 126.996165 -0.000000 136.414177
LeftHand 7.209455 -0.000000 -4.148816
LeftHandThumb1 -26.253704 0.000000 33.147579
RightShoulder -16.574215 -9.895533 -8.229648
RightArm 0.344140 -37.361578 87.847879
RightForeArm -23.038297 -0.000000 28.847611
RightHand -13.548722 0.000000 12.752164
RightHandThumb1 -24.326973 -0.000000 -32.862282
LeftUpLeg -9.319606 1.430586 1.904543
LeftLeg 22.422731 -0.000000 -0.000000
LeftFoot -26.003660 18.987703 -17.790739
LeftToeBase 8.989714 -0.000000 -0.000000
RightUpLeg -39.095735 -2.555912 7.971924
RightLeg 64.121298 -0.000000 -0.000000
RightFoot -6.933373 -13.891615 17.014811
RightToeBase -0.207785 -0.000000 0.000000
1953
root -3.661190 31.975620 -2.531811 -0.558672 11.340104 -9.330294
Spine 6.882260 -15.290825 -3.313383
Head 22.018316 -5.823569 14.468366
LeftShoulder -14.821339 13.884630 15.223985
LeftArm 27.814772 -25.163285 -78.686493
LeftForeArm 126.961929 -0.000000 136.399313
LeftHand 7.118284 -0.000000 -4.044419
LeftHandThumb1 -26.253704 0.000000 33.147579
RightShoulder -16.567239 -9.928341 -8.232957
RightArm 0.329635 -37.336933 87.881021
RightForeArm -22.982023 -0.000000 28.742946
RightHand -13.625044 0.000000 12.780154
RightHandThumb1 -24.326973 -0.000000 -32.862282
LeftUpLeg -9.273505 1.317345 1.876473
LeftLeg 22.236304 -0.000000 -0.000000
LeftFoot -25.891994 18.914888 -17.658140
LeftToeBase 8.940550 -0.000000 -0.000000
RightUpLeg -37.604305 -2.077304 7.534806
RightLeg 62.595717 -0.000000 -0.000000
RightFoot -7.350083 -13.480091 17.142142
RightToeBase -0.367741 -0.000000 0.000000
1954
root -3.657887 31.982145 -2.491495 -0.544143 11.565332 -9.366516
Spine 6.805570 -15.328131 -3.206145
Head 21.801265 -5.763156 14.445406
LeftShoulder -14.816544 13.876989 15.158881
LeftArm 27.777478 -25.097718 -78.702806
LeftForeArm 126.934849 -0.000000 136.404974
LeftHand 7.181082 0.000000 -3.913232
LeftHandThumb1 -26.253704 0.000000 33.147579
RightShoulder -16.532879 -9.905117 -8.271994
RightArm 0.323980 -37.279439 87.924868
RightForeArm -22.977439 -0.000000 28.582964
RightHand -13.481272 -0.000000 12.712907
RightHandThumb1 -24.326973 -0.000000 -32.862282
LeftUpLeg -9.169287 1.253260 1.916643
LeftLeg 22.059293 -0.000000 -0.000000
LeftFoot -25.876702 18.773284 -17.679862
LeftToeBase 8.973979 -0.000000 -0.000000
RightUpLeg -36.028662 -1.610528 7.192836
RightLeg 60.959928 -0.000000 -0.000000
RightFoot -7.758911 -13.101157 17.255703
RightToeBase -0.759484 -0.000000 0.000000
1955
root -3.641956 31.982578 -2.456186 -0.402167 11.765960 -9.256626
Spine 6.603342 -15.339617 -3.205743
Head 21.572595 -5.723757 14.401997
LeftShoulder -14.820319 13.846002 15.136349
LeftArm 27.657499 -24.973969 -78.696446
LeftForeArm 126.899954 -0.000000 136.415435
LeftHand 7.159612 -0.000000 -3.811092
LeftHandThumb1 -26.253704 0.000000 33.147579
RightShoulder -16.494244 -9.861250 -8.326650
RightArm 0.220201 -37.212570 87.989346
RightForeArm -22.957616 -0.000000 28.544579
RightHand -13.588836 -0.000000 12.743784
RightHandThumb1 -24.326973 -0.000000 -32.862282
LeftUpLeg -9.147752 1.099490 1.793899
LeftLeg 21.839422 -0.000000 -0.000000
LeftFoot -25.797942 18.782166 -17.542188
LeftToeBase 9.063046 -0.000000 -0.000000
RightUpLeg -34.656275 -1.146231 6.732807
RightLeg 59.407922 -0.000000 -0.000000
RightFoot -8.109050 -12.871955 17.446565
RightToeBase -0.935254 -0.000000 0.000000
1956
root -3.631270 31.982738 -2.421844 -0.205133 11.995748 -9.103403
Spine 6.342619 -15.363804 -3.265234
Head 21.362337 -5.727130 14.391905
LeftShoulder -14.806474 13.881091 15.131618
LeftArm 27.596117 -24.870444 -78.694256
LeftForeArm 126.833547 0.000000 136.428951
LeftHand 7.180161 0.000000 -3.763298
LeftHandThumb1 -26.253704 0.000000 33.147579
RightShoulder -16.469507 -9.924186 -8.349860
RightArm 0.250654 -37.148375 88.005136
RightForeArm -22.970194 -0.000000 28.481428
RightHand -13.559050 -0.000000 12.844685
RightHandThumb1 -24.326973 -0.000000 -32.862282
LeftUpLeg -9.178760 0.964028 1.632982
LeftLeg 21.632708 -0.000000 -0.000000
LeftFoot -25.745634 18.744674 -17.509140
LeftToeBase 9.386314 -0.000000 -0.000000
RightUpLeg -33.325456 -0.615192 6.224402
RightLeg 57.853202 -0.000000 -0.000000
RightFoot -8.582155 -12.550912 17.495900
RightToeBase -0.345128 -0.000000 0.000000
1957
root -3.609173 31.978893 -2.396030 0.034838 12.145007 -8.896630
Spine 6.062216 -15.323825 -3.327129
Head 21.087351 -5.659543 14.328272
LeftShoulder -14.828483 13.910359 15.096014
LeftArm 27.567927 -24.730622 -78.724989
LeftForeArm 126.787704 -0.000000 136.420499
LeftHand 7.127289 -0.000000 -3.673945
LeftHandThumb1 -26.253704 0.000000 33.147579
RightShoulder -16.425295 -9.914857 -8.431494
RightArm 0.234105 -37.158330 88.045135
RightForeArm -22.918952 -0.000000 28.412198
RightHand -13.570973 -0.000000 12.747151
RightHandThumb1 -24.326973 -0.000000 -32.862282
LeftUpLeg -9.239593 0.850473 1.400534
LeftLeg 21.405404 -0.000000 -0.000000
LeftFoot -25.671134 18.721751 -17.490538
LeftToeBase 9.422528 -0.000000 -0.000000
RightUpLeg -32.075401 -0.053814 5.663364
RightLeg 56.263160 -0.000000 -0.000000
RightFoot -8.907400 -12.286084 17.669615
RightToeBase -0.473405 -0.000000 0.000000
